<svg width="298" height="298" viewBox="0 0 298 298" fill="none" xmlns="http://www.w3.org/2000/svg">
<path fill-rule="evenodd" clip-rule="evenodd" d="M88.5515 0H0V55.1459C32.4722 39.2115 62.4719 19.9279 88.5515 0ZM1.50201 170.238C0.512146 163.301 0 156.21 0 149V170.751C0.501038 170.581 1.00171 170.41 1.50201 170.238Z" fill="#4962E1"/>
<path fill-rule="evenodd" clip-rule="evenodd" d="M167.126 1.09131C161.504 6.75079 155.45 12.5336 149 18.3717C111.742 52.0958 61.2829 87.6653 4.63757 111.971C3.09625 112.632 1.55035 113.285 0 113.929V149C0 156.21 0.512146 163.301 1.50201 170.237C50.5191 153.375 96.0274 127.062 133.906 99.0002L130.891 95.3701L117 78.6425L161.498 71.0302L170.369 69.5125L214.347 61.9891L195.051 114.176L193.141 119.34L180.096 154.621L167.916 139.954C161.822 144.64 155.51 149.293 149 153.879C110.934 180.688 66.0663 205.173 18.1487 220.325C12.1445 222.224 6.09253 223.976 0 225.568V273.832V298H108.883H149C229.101 298 294.439 234.793 297.859 155.534C277.552 182.236 242.033 216.815 197.295 248.074L209.494 266.074L164.466 269.321L110.988 273.178L135.27 223.116L154.089 184.318L167.028 203.412C224.37 165.044 268.001 120.324 286.285 90.9888C279.466 74.8717 269.892 60.2039 258.153 47.5762C247.166 35.757 234.282 25.7248 219.986 17.9639C203.921 9.24225 186.071 3.38895 167.126 1.09131Z" fill="#4962E1"/>
</svg>
