<svg width="533" height="120" viewBox="0 0 533 120" fill="none" xmlns="http://www.w3.org/2000/svg">
<path fill-rule="evenodd" clip-rule="evenodd" d="M35.6583 0H0V22.2064C13.076 15.7899 25.1565 8.02465 35.6583 0ZM0.604838 68.552C0.206233 65.7588 0 62.9035 0 60V68.7588C0.20176 68.6902 0.403373 68.6213 0.604838 68.552Z" fill="#4962E1"/>
<path fill-rule="evenodd" clip-rule="evenodd" d="M67.2993 0.439453C65.0354 2.71844 62.5975 5.04709 60.0002 7.398C44.9972 20.9782 24.6779 35.3015 1.86772 45.0888C1.24706 45.3551 0.624548 45.6181 0.000244141 45.8776V60C0.000244141 62.9034 0.206477 65.7587 0.605082 68.552C20.3435 61.7616 38.669 51.166 53.9221 39.8658L52.7081 38.404L47.1143 31.6681L65.0329 28.6027L68.6052 27.9916L86.3145 24.962L78.5441 45.9769L77.7752 48.0564L72.522 62.2634L67.6174 56.3573C65.1635 58.2444 62.6219 60.1182 60.0002 61.9646C44.6715 72.7604 26.6041 82.6201 7.30844 88.7216C4.89066 89.4861 2.45361 90.1917 0.000244141 90.8326V110.268V120H43.8456H60.0002C92.2557 120 118.566 94.5474 119.944 62.6312C111.766 73.3836 97.4632 87.3081 79.4481 99.8957L84.36 107.144L66.2283 108.452L44.6934 110.005L54.4714 89.8453L62.0493 74.2219L67.2599 81.9108C90.3507 66.4609 107.92 48.4526 115.283 36.6398C112.537 30.1497 108.682 24.2432 103.955 19.1582C99.5301 14.3988 94.342 10.359 88.5853 7.23378C82.1159 3.72171 74.9284 1.36468 67.2993 0.439453Z" fill="#4962E1"/>
<path d="M172.307 54H156.535V7.45454H172.625C177.247 7.45454 181.216 8.38636 184.535 10.25C187.868 12.0985 190.428 14.7576 192.216 18.2273C194.004 21.697 194.898 25.8485 194.898 30.6818C194.898 35.5303 193.997 39.697 192.194 43.1818C190.406 46.6667 187.822 49.3409 184.444 51.2045C181.08 53.0682 177.035 54 172.307 54ZM164.966 46.7045H171.898C175.141 46.7045 177.845 46.1136 180.012 44.9318C182.178 43.7348 183.807 41.9545 184.898 39.5909C185.989 37.2121 186.535 34.2424 186.535 30.6818C186.535 27.1212 185.989 24.1667 184.898 21.8182C183.807 19.4545 182.194 17.6894 180.057 16.5227C177.936 15.3409 175.3 14.75 172.148 14.75H164.966V46.7045ZM228.205 20.25C227.993 18.2652 227.099 16.7197 225.523 15.6136C223.963 14.5076 221.932 13.9545 219.432 13.9545C217.675 13.9545 216.167 14.2197 214.91 14.75C213.652 15.2803 212.69 16 212.023 16.9091C211.356 17.8182 211.016 18.8561 211 20.0227C211 20.9924 211.22 21.8333 211.66 22.5455C212.114 23.2576 212.728 23.8636 213.5 24.3636C214.273 24.8485 215.129 25.2576 216.069 25.5909C217.008 25.9242 217.955 26.2045 218.91 26.4318L223.273 27.5227C225.031 27.9318 226.72 28.4848 228.341 29.1818C229.978 29.8788 231.44 30.7576 232.728 31.8182C234.031 32.8788 235.061 34.1591 235.819 35.6591C236.576 37.1591 236.955 38.9167 236.955 40.9318C236.955 43.6591 236.258 46.0606 234.864 48.1364C233.47 50.197 231.455 51.8106 228.819 52.9773C226.197 54.1288 223.023 54.7045 219.296 54.7045C215.675 54.7045 212.531 54.1439 209.864 53.0227C207.213 51.9015 205.137 50.2652 203.637 48.1136C202.152 45.9621 201.349 43.3409 201.228 40.25H209.523C209.644 41.8712 210.144 43.2197 211.023 44.2955C211.902 45.3712 213.046 46.1742 214.455 46.7045C215.879 47.2348 217.47 47.5 219.228 47.5C221.061 47.5 222.667 47.2273 224.046 46.6818C225.44 46.1212 226.531 45.3485 227.319 44.3636C228.106 43.3636 228.508 42.197 228.523 40.8636C228.508 39.6515 228.152 38.6515 227.455 37.8636C226.758 37.0606 225.781 36.3939 224.523 35.8636C223.281 35.3182 221.826 34.8333 220.16 34.4091L214.864 33.0455C211.031 32.0606 208 30.5682 205.773 28.5682C203.561 26.553 202.455 23.8788 202.455 20.5455C202.455 17.803 203.197 15.4015 204.682 13.3409C206.182 11.2803 208.22 9.68182 210.796 8.54545C213.372 7.39394 216.288 6.81818 219.546 6.81818C222.849 6.81818 225.743 7.39394 228.228 8.54545C230.728 9.68182 232.69 11.2652 234.114 13.2955C235.538 15.3106 236.273 17.6288 236.319 20.25H228.205ZM187.716 80.3182C187.338 79.0909 186.815 77.9924 186.148 77.0227C185.497 76.0379 184.709 75.197 183.785 74.5C182.875 73.803 181.83 73.2803 180.648 72.9318C179.466 72.5682 178.178 72.3864 176.785 72.3864C174.285 72.3864 172.057 73.0152 170.103 74.2727C168.148 75.5303 166.61 77.3788 165.489 79.8182C164.383 82.2424 163.83 85.197 163.83 88.6818C163.83 92.197 164.383 95.1742 165.489 97.6136C166.595 100.053 168.133 101.909 170.103 103.182C172.072 104.439 174.36 105.068 176.966 105.068C179.33 105.068 181.375 104.614 183.103 103.705C184.845 102.795 186.186 101.508 187.125 99.8409C188.065 98.1591 188.535 96.1894 188.535 93.9318L190.444 94.2273H177.807V87.6364H196.694V93.2273C196.694 97.2121 195.845 100.659 194.148 103.568C192.451 106.477 190.118 108.72 187.148 110.295C184.178 111.856 180.769 112.636 176.921 112.636C172.633 112.636 168.868 111.674 165.625 109.75C162.398 107.811 159.875 105.061 158.057 101.5C156.254 97.9242 155.353 93.6818 155.353 88.7727C155.353 85.0152 155.883 81.6591 156.944 78.7045C158.019 75.75 159.519 73.2424 161.444 71.1818C163.368 69.1061 165.625 67.5303 168.216 66.4545C170.807 65.3636 173.625 64.8182 176.671 64.8182C179.247 64.8182 181.648 65.197 183.875 65.9545C186.103 66.697 188.08 67.7576 189.807 69.1364C191.55 70.5152 192.981 72.1515 194.103 74.0455C195.224 75.9394 195.959 78.0303 196.307 80.3182H187.716ZM219.938 112.682C216.438 112.682 213.415 111.955 210.87 110.5C208.339 109.03 206.392 106.955 205.029 104.273C203.665 101.576 202.983 98.4015 202.983 94.75C202.983 91.1591 203.665 88.0076 205.029 85.2955C206.408 82.5682 208.332 80.447 210.802 78.9318C213.271 77.4015 216.173 76.6364 219.506 76.6364C221.658 76.6364 223.688 76.9848 225.597 77.6818C227.521 78.3636 229.218 79.4242 230.688 80.8636C232.173 82.303 233.339 84.1364 234.188 86.3636C235.036 88.5758 235.461 91.2121 235.461 94.2727V96.7955H206.847V91.25H227.574C227.559 89.6742 227.218 88.2727 226.552 87.0455C225.885 85.803 224.953 84.8258 223.756 84.1136C222.574 83.4015 221.195 83.0455 219.62 83.0455C217.938 83.0455 216.461 83.4545 215.188 84.2727C213.915 85.0758 212.923 86.1364 212.211 87.4545C211.514 88.7576 211.158 90.1894 211.142 91.75V96.5909C211.142 98.6212 211.514 100.364 212.256 101.818C212.999 103.258 214.036 104.364 215.37 105.136C216.703 105.894 218.264 106.273 220.052 106.273C221.249 106.273 222.332 106.106 223.302 105.773C224.271 105.424 225.112 104.917 225.824 104.25C226.536 103.583 227.074 102.758 227.438 101.773L235.12 102.636C234.635 104.667 233.711 106.439 232.347 107.955C230.999 109.455 229.271 110.621 227.165 111.455C225.059 112.273 222.65 112.682 219.938 112.682ZM250.648 91.5455V112H242.421V77.0909H250.285V83.0227H250.694C251.497 81.0682 252.777 79.5152 254.535 78.3636C256.307 77.2121 258.497 76.6364 261.103 76.6364C263.512 76.6364 265.61 77.1515 267.398 78.1818C269.201 79.2121 270.595 80.7045 271.58 82.6591C272.58 84.6136 273.072 86.9848 273.057 89.7727V112H264.83V91.0455C264.83 88.7121 264.224 86.8864 263.012 85.5682C261.815 84.25 260.156 83.5909 258.035 83.5909C256.595 83.5909 255.315 83.9091 254.194 84.5455C253.088 85.1667 252.216 86.0682 251.58 87.25C250.959 88.4318 250.648 89.8636 250.648 91.5455ZM296.875 112.682C293.375 112.682 290.353 111.955 287.807 110.5C285.277 109.03 283.33 106.955 281.966 104.273C280.603 101.576 279.921 98.4015 279.921 94.75C279.921 91.1591 280.603 88.0076 281.966 85.2955C283.345 82.5682 285.269 80.447 287.739 78.9318C290.209 77.4015 293.11 76.6364 296.444 76.6364C298.595 76.6364 300.625 76.9848 302.535 77.6818C304.459 78.3636 306.156 79.4242 307.625 80.8636C309.11 82.303 310.277 84.1364 311.125 86.3636C311.974 88.5758 312.398 91.2121 312.398 94.2727V96.7955H283.785V91.25H304.512C304.497 89.6742 304.156 88.2727 303.489 87.0455C302.822 85.803 301.891 84.8258 300.694 84.1136C299.512 83.4015 298.133 83.0455 296.557 83.0455C294.875 83.0455 293.398 83.4545 292.125 84.2727C290.853 85.0758 289.86 86.1364 289.148 87.4545C288.451 88.7576 288.095 90.1894 288.08 91.75V96.5909C288.08 98.6212 288.451 100.364 289.194 101.818C289.936 103.258 290.974 104.364 292.307 105.136C293.641 105.894 295.201 106.273 296.989 106.273C298.186 106.273 299.269 106.106 300.239 105.773C301.209 105.424 302.05 104.917 302.762 104.25C303.474 103.583 304.012 102.758 304.375 101.773L312.057 102.636C311.572 104.667 310.648 106.439 309.285 107.955C307.936 109.455 306.209 110.621 304.103 111.455C301.997 112.273 299.588 112.682 296.875 112.682ZM319.358 112V77.0909H327.336V82.9091H327.699C328.336 80.8939 329.427 79.3409 330.972 78.25C332.533 77.1439 334.313 76.5909 336.313 76.5909C336.767 76.5909 337.275 76.6136 337.836 76.6591C338.411 76.6894 338.889 76.7424 339.267 76.8182V84.3864C338.919 84.2652 338.366 84.1591 337.608 84.0682C336.866 83.9621 336.146 83.9091 335.449 83.9091C333.949 83.9091 332.601 84.2348 331.404 84.8864C330.222 85.5227 329.29 86.4091 328.608 87.5455C327.927 88.6818 327.586 89.9924 327.586 91.4773V112H319.358ZM354.154 112.705C351.942 112.705 349.949 112.311 348.177 111.523C346.419 110.72 345.025 109.538 343.995 107.977C342.98 106.417 342.472 104.492 342.472 102.205C342.472 100.235 342.836 98.6061 343.563 97.3182C344.29 96.0303 345.283 95 346.54 94.2273C347.798 93.4545 349.214 92.8712 350.79 92.4773C352.381 92.0682 354.025 91.7727 355.722 91.5909C357.767 91.3788 359.427 91.1894 360.699 91.0227C361.972 90.8409 362.896 90.5682 363.472 90.2045C364.063 89.8258 364.358 89.2424 364.358 88.4545V88.3182C364.358 86.6061 363.851 85.2803 362.836 84.3409C361.82 83.4015 360.358 82.9318 358.449 82.9318C356.434 82.9318 354.836 83.3712 353.654 84.25C352.487 85.1288 351.699 86.1667 351.29 87.3636L343.608 86.2727C344.214 84.1515 345.214 82.3788 346.608 80.9545C348.002 79.5151 349.707 78.4394 351.722 77.7273C353.737 77 355.964 76.6364 358.404 76.6364C360.086 76.6364 361.76 76.8333 363.427 77.2273C365.093 77.6212 366.616 78.2727 367.995 79.1818C369.374 80.0758 370.48 81.2955 371.313 82.8409C372.161 84.3864 372.586 86.3182 372.586 88.6364V112H364.677V107.205H364.404C363.904 108.174 363.199 109.083 362.29 109.932C361.396 110.765 360.267 111.439 358.904 111.955C357.555 112.455 355.972 112.705 354.154 112.705ZM356.29 106.659C357.942 106.659 359.374 106.333 360.586 105.682C361.798 105.015 362.73 104.136 363.381 103.045C364.048 101.955 364.381 100.765 364.381 99.4773V95.3636C364.124 95.5758 363.684 95.7727 363.063 95.9545C362.457 96.1364 361.775 96.2955 361.017 96.4318C360.26 96.5682 359.51 96.6894 358.767 96.7955C358.025 96.9015 357.381 96.9924 356.836 97.0682C355.608 97.2348 354.51 97.5076 353.54 97.8864C352.57 98.2652 351.805 98.7955 351.245 99.4773C350.684 100.144 350.404 101.008 350.404 102.068C350.404 103.583 350.957 104.727 352.063 105.5C353.169 106.273 354.578 106.659 356.29 106.659ZM389.086 65.4545V112H380.858V65.4545H389.086ZM413.785 112V65.4545H431.239C434.815 65.4545 437.815 66.1212 440.239 67.4545C442.678 68.7879 444.519 70.6212 445.762 72.9545C447.019 75.2727 447.648 77.9091 447.648 80.8636C447.648 83.8485 447.019 86.5 445.762 88.8182C444.504 91.1364 442.648 92.9621 440.194 94.2955C437.739 95.6136 434.716 96.2727 431.125 96.2727H419.557V89.3409H429.989C432.08 89.3409 433.792 88.9773 435.125 88.25C436.459 87.5227 437.444 86.5227 438.08 85.25C438.731 83.9773 439.057 82.5152 439.057 80.8636C439.057 79.2121 438.731 77.7576 438.08 76.5C437.444 75.2424 436.451 74.2652 435.103 73.5682C433.769 72.8561 432.05 72.5 429.944 72.5H422.216V112H413.785ZM454.972 112V65.4545H463.404V104.932H483.904V112H454.972ZM529.25 81.1591H520.75C520.508 79.7652 520.061 78.5303 519.41 77.4545C518.758 76.3636 517.947 75.4394 516.978 74.6818C516.008 73.9242 514.902 73.3561 513.66 72.9773C512.432 72.5833 511.106 72.3864 509.682 72.3864C507.152 72.3864 504.91 73.0227 502.955 74.2955C501 75.553 499.47 77.4015 498.364 79.8409C497.258 82.2652 496.705 85.2273 496.705 88.7273C496.705 92.2879 497.258 95.2879 498.364 97.7273C499.485 100.152 501.016 101.985 502.955 103.227C504.91 104.455 507.144 105.068 509.66 105.068C511.053 105.068 512.356 104.886 513.569 104.523C514.796 104.144 515.894 103.591 516.864 102.864C517.849 102.136 518.675 101.242 519.341 100.182C520.023 99.1212 520.493 97.9091 520.75 96.5455L529.25 96.5909C528.932 98.803 528.243 100.879 527.182 102.818C526.137 104.758 524.766 106.47 523.069 107.955C521.372 109.424 519.387 110.576 517.114 111.409C514.841 112.227 512.319 112.636 509.546 112.636C505.455 112.636 501.803 111.689 498.591 109.795C495.379 107.902 492.849 105.167 491 101.591C489.152 98.0152 488.228 93.7273 488.228 88.7273C488.228 83.7121 489.16 79.4242 491.023 75.8636C492.887 72.2879 495.425 69.553 498.637 67.6591C501.849 65.7651 505.485 64.8182 509.546 64.8182C512.137 64.8182 514.546 65.1818 516.773 65.9091C519 66.6364 520.985 67.7045 522.728 69.1136C524.47 70.5076 525.902 72.2197 527.023 74.25C528.16 76.2652 528.902 78.5682 529.25 81.1591Z" fill="#4962E1"/>
</svg>
